inDegrees=yes
name=ik_Xsens_3
DataType=double
version=3
OpenSimVersion=4.4-2022-07-23-0e9fedc
endheader
time	pelvis_tilt	pelvis_list	pelvis_rotation	pelvis_tx	pelvis_ty	pelvis_tz	hip_flexion_r	hip_adduction_r	hip_rotation_r	knee_angle_r	knee_angle_r_beta	ankle_angle_r	subtalar_angle_r	mtp_angle_r	hip_flexion_l	hip_adduction_l	hip_rotation_l	knee_angle_l	knee_angle_l_beta	ankle_angle_l	subtalar_angle_l	mtp_angle_l	lumbar_extension	lumbar_bending	lumbar_rotation	arm_flex_r	arm_add_r	arm_rot_r	elbow_flex_r	pro_sup_r	wrist_flex_r	wrist_dev_r	arm_flex_l	arm_add_l	arm_rot_l	elbow_flex_l	pro_sup_l	wrist_flex_l	wrist_dev_l
30	0	0	0	0	0.93	0	1.663635996005061e-35	-3.744773114665654e-40	0	2.426570649309934e-20	5.239443511261085e-23	0	0	0	1.663635996005061e-35	-3.744773114665654e-40	0	2.426570649309934e-20	5.239443511261085e-23	0	0	0	0	0	0	0	0	0	0	0	0	0	34.39852331419334	-126.6250715406043	4.331800239018184	47.45032194688054	3.524532030343475	0	0
30.01666666666667	-1.293136610756882e-33	-2.640153913628635e-34	-1.379345718140675e-33	0	0.93	0	8.871766794942985e-40	3.367543257179381e-37	0	6.132847120903772e-40	-1.7926642934077e-41	0	0	0	8.871766794942985e-40	3.367543257179381e-37	0	6.132847120903772e-40	-1.7926642934077e-41	0	0	0	-1.293136610756882e-33	-2.640153913628635e-34	-1.379345718140675e-33	0	0	0	0	0	0	0	34.43598868459596	-126.6075315249925	4.190154864555244	47.57470838281807	3.440770711400346	0	0
30.03333333333333	0	0	0	0	0.93	0	1.301412181247115e-35	2.569342702173423e-35	0	0	0	-9.316921812187728e-37	0	0	1.301412181247115e-35	2.569342702173423e-35	0	0	0	-9.316921812187728e-37	0	0	0	0	0	0	0	0	0	0	0	-1.18084841866899e-35	34.45602328357073	-126.6000653840484	4.072424656371914	47.69382944095723	3.380233293384179	0	-1.18084841866899e-35
30.05	0	0	0	0	0.93	0	-1.5286637120013e-35	-1.245521062586535e-36	0	0	0	9.778810242365822e-37	0	0	-1.5286637120013e-35	-1.245521062586535e-36	0	0	0	9.778810242365822e-37	0	0	0	0	0	0	0	0	0	0	0	-1.676811339290008e-36	34.46498318677394	-126.5869668664152	3.975391943567504	47.80615624969729	3.328711604602973	0	-1.676811339290008e-36
30.06666666666667	-2.020525954307629e-34	2.855676682088115e-34	0	0	0.93	0	-3.022976953553216e-36	7.678771496170232e-37	0	5.234389931440913e-41	2.17080805040636e-40	9.681031820974014e-41	0	0	-3.022976953553216e-36	7.678771496170232e-37	0	5.234389931440913e-41	2.17080805040636e-40	9.681031820974014e-41	0	0	-2.020525954307629e-34	2.855676682088115e-34	0	0	0	0	0	0	0	-2.034544212540819e-37	34.46445963859025	-126.5563218881114	3.901626072145136	47.90934966716735	3.27863418893211	0	-2.034544212540819e-37
30.08333333333333	9.568957999321687e-26	1.638054948858847e-18	2.443511632376383e-25	-4.473399978652665e-21	0.93	1.018546358859088e-18	1.455539849273846e-34	3.213091396280573e-15	0	2.492489220559085e-15	4.350214348082321e-17	9.762323812084786e-21	-1.795211905095637e-24	-2.264426261740272e-19	-3.359577621315898e-14	5.166711585014032e-25	-2.561535785474269e-14	2.492536730690586e-15	4.350347786666653e-17	-3.021284257755519e-22	1.46580565722601e-21	-1.390307062248089e-19	3.762611804227263e-25	-2.529783990635578e-15	9.950901428310473e-25	7.451264979322108e-22	-7.87841000717564e-21	4.05761028724099e-21	1.486286645026343e-22	3.691429244999212e-22	4.313886449248602e-24	1.776945513190665e-15	34.45355549200087	-126.5045934014792	3.845398649059072	48.01316158713989	3.225566011242088	4.135266189868571e-19	3.280814109927998e-15
30.1	0	0	-2.023893497564808e-34	0	0.93	-9.787956701997787e-54	1.440985891767006e-38	-2.1667910261526e-35	0	1.052357267868557e-38	1.11731391761026e-40	-9.027630564968631e-38	0	0	1.856956568501473e-36	-2.155227683591198e-35	3.090279759481384e-48	0	-3.253218141228466e-40	4.62220496124225e-37	-2.920878172298238e-55	-5.841756344596475e-55	0	-3.017318758432726e-34	-2.023893497564808e-34	7.451264979322108e-22	-7.87841000717564e-21	4.05761028724099e-21	1.486286645026343e-22	3.691429244999212e-22	0	-6.856764199679731e-36	34.43119888679137	-126.4535260382077	3.801482422117807	48.11969544729155	3.182261667790741	0	-5.723291856963026e-38
30.11666666666667	-5.661630111704914e-12	1.047185901343826e-12	-6.789864343301291e-12	0	0.93	-1.12538421191827e-66	7.178853832830471e-37	-6.107414300681591e-29	0	1.561507921979744e-07	2.725345840156972e-09	1.123655853728642e-36	0	0	7.178853832830471e-37	-6.107414300681591e-29	3.55309300767819e-61	1.561507921979744e-07	2.725345840156972e-09	1.123655853728642e-36	-3.358321128838389e-68	-6.716642257669535e-68	-5.661630111704747e-12	1.047185901343835e-12	-6.789864343301399e-12	7.451264979322108e-22	-7.87841000717564e-21	4.05761028724099e-21	1.486286645026343e-22	3.691429244999212e-22	0	4.922728055177674e-37	34.39191180738595	-126.4157728482794	3.774676328559384	48.22798922735588	3.161191111671567	0	4.922728055177674e-37
30.13333333333333	1.18120072953831e-33	-4.741500906108568e-34	-2.267163565813376e-33	0	0.93	-9.532336251514285e-101	-3.124741797190227e-36	-3.678845618701273e-47	0	1.385213642700005e-38	-4.257148140845084e-41	1.112420407611792e-40	0	0	-3.124741797190227e-36	-3.678845618701273e-47	2.145922369360441e-94	1.385213642700005e-38	-4.257148140845084e-41	1.112420407611792e-40	-3.722291824346242e-102	-3.206417152045908e-101	-4.72790506807278e-35	-3.448364295351686e-34	0	7.451264979322108e-22	-7.87841000717564e-21	4.05761028724099e-21	1.486286645026343e-22	3.691429244999212e-22	0	-1.857092915118495e-36	34.34749031767171	-126.367248864589	3.753856021749175	48.34009747017045	3.137279257008933	0	-1.857092915118495e-36
30.15	0	0	0	0	0.93	0	2.833065764276086e-36	1.457941509166598e-36	0	0	0	2.595428138820951e-37	0	0	2.833065764276086e-36	1.457941509166598e-36	0	0	0	2.595428138820951e-37	0	0	0	0	0	7.451264979322108e-22	-7.87841000717564e-21	4.05761028724099e-21	1.486286645026343e-22	3.691429244999212e-22	0	5.261946113433593e-36	34.3126374675136	-126.3022666643326	3.731708896922796	48.44317711443954	3.098171740258378	0	5.261946113433593e-36
30.16666666666667	1.077613842297402e-35	-7.758819664541295e-34	-7.428800425337715e-34	0	0.93	0	-7.446922292444089e-36	-2.551000210991264e-37	0	0	-2.762623247808131e-41	2.569476426909237e-41	0	0	-7.446922292444089e-36	-2.551000210991264e-37	0	0	-2.762623247808131e-41	2.569476426909237e-41	0	0	1.077613842297402e-35	-7.758819664541295e-34	-7.428800425337715e-34	7.451264979322108e-22	-7.87841000717564e-21	4.05761028724099e-21	1.486286645026343e-22	3.691429244999212e-22	0	5.277434922212321e-36	34.27815345609344	-126.2345266323559	3.708104789426722	48.54849178497849	3.056467968615836	0	5.277434922212321e-36
30.18333333333333	0	0	0	0	0.93	0	0	0	0	1.830952007280443e-40	0	0	0	0	0	0	0	1.830952007280443e-40	0	0	0	0	0	0	0	7.451264979322108e-22	-7.87841000717564e-21	4.05761028724099e-21	1.486286645026343e-22	3.691429244999212e-22	0	0	34.24535042167103	-126.1772153982492	3.682034411411812	48.65141730193456	3.020190310407982	0	0
